<?xml version="1.0" encoding="UTF-8"?>
<svg id="Layer_1" xmlns="http://www.w3.org/2000/svg" version="1.1" viewBox="0 0 68 68">
  <!-- Generator: Adobe Illustrator 30.3.0, SVG Export Plug-In . SVG Version: 2.1.3 Build 182)  -->
  <defs>
    <style>
      .st0 {
        fill: #0676de;
      }

      .st1 {
        fill: #00b268;
      }

      .st2 {
        fill: #fffaf0;
      }

      .st3 {
        fill: #002140;
      }

      .st4 {
        stroke: #002140;
      }

      .st4, .st5 {
        fill: none;
        stroke-linecap: round;
        stroke-linejoin: round;
      }

      .st6 {
        fill: #d18000;
      }

      .st5 {
        stroke: #fffaf0;
      }

      .st7 {
        fill: #722b03;
      }
    </style>
  </defs>
  <path class="st7" d="M8,52.551c0,.576.464,1.043,1.04,1.043h5.601c.576,0,1.039-.467,1.039-1.043v-.434c0-.576-.464-1.043-1.039-1.043h-5.601c-.576,0-1.04.467-1.04,1.043v.434Z"/>
  <path class="st7" d="M10.015,25.696h-.909c-.494,0-.897.46-.897,1.032v.423c0,.568.404,1.032.897,1.032h1.365v-2.487h-.456Z"/>
  <path class="st6" d="M10.472,50.711v.363h2.737v-25.621c0-.31-.363-.561-.811-.561h-1.114c-.449,0-.811.25-.811.561v25.258Z"/>
  <path class="st7" d="M13.209,25.696v2.487h3.062v-2.487h-3.062Z"/>
  <path class="st3" d="M13.28,46.83l.034,2.606,7.217-7.119h-2.464l-4.786,4.513Z"/>
  <path class="st4" d="M10.472,50.711v-25.258c0-.31.363-.561.811-.561h1.114c.449,0,.811.25.811.561v25.258"/>
  <path class="st4" d="M13.209,51.074h1.432c.576,0,1.039.467,1.039,1.043v.434c0,.576-.464,1.043-1.039,1.043h-5.601c-.576,0-1.04-.467-1.04-1.043v-.434c0-.576.464-1.043,1.04-1.043h4.169Z"/>
  <path class="st4" d="M13.542,25.696h2.73v2.487h-2.73"/>
  <path class="st4" d="M10.015,28.183h-.909c-.494,0-.897-.464-.897-1.032v-.423c0-.572.404-1.032.897-1.032h.909"/>
  <path class="st4" d="M13.28,46.83l.034,2.606,7.217-7.119h-2.464l-4.786,4.513Z"/>
  <path class="st3" d="M55.193,46.83l-.034,2.606-7.217-7.119h2.464l4.786,4.513Z"/>
  <path class="st7" d="M60.472,52.551c0,.576-.464,1.043-1.04,1.043h-5.601c-.576,0-1.039-.467-1.039-1.043v-.434c0-.576.464-1.043,1.039-1.043h5.601c.576,0,1.04.467,1.04,1.043v.434Z"/>
  <path class="st7" d="M58,28.183v-2.487h1.365c.494,0,.897.46.897,1.032v.423c0,.568-.404,1.032-.897,1.032h-1.365Z"/>
  <path class="st7" d="M55.264,25.696v2.487h-2.449v-2.487h2.449Z"/>
  <path class="st6" d="M58.001,50.711v.363h-2.737v-25.621c0-.31.363-.561.811-.561h1.114c.449,0,.811.25.811.561v25.258Z"/>
  <path class="st4" d="M58.001,50.711v-25.258c0-.31-.363-.561-.811-.561h-1.114c-.449,0-.811.25-.811.561v25.258"/>
  <path class="st4" d="M55.263,51.074h-1.432c-.576,0-1.039.467-1.039,1.043v.434c0,.576.464,1.043,1.039,1.043h5.601c.576,0,1.04-.467,1.04-1.043v-.434c0-.576-.464-1.043-1.04-1.043h-4.169Z"/>
  <path class="st4" d="M54.957,25.696h-2.143v2.487h2.143"/>
  <path class="st4" d="M58.457,28.183h.909c.494,0,.897-.464.897-1.032v-.423c0-.572-.404-1.032-.897-1.032h-.909"/>
  <path class="st4" d="M55.193,46.83l-.034,2.606-7.217-7.119h2.464l4.786,4.513Z"/>
  <path class="st6" d="M16.02,35.082V15.481c0-.819.662-1.481,1.481-1.481h33.582c.819,0,1.481.662,1.481,1.481v19.597"/>
  <path class="st1" d="M17.902,35.074v-18.546c0-.355.288-.643.643-.643h31.376c.355,0,.643.288.643.643v18.546"/>
  <path class="st6" d="M53.061,35.097v1.35c0,.819-.692,1.481-1.544,1.481H17.063c-.853,0-1.544-.662-1.544-1.481v-1.35h37.542Z"/>
  <path class="st0" d="M19.82,34.962v-1.208c0-.449.363-.815.815-.815h3.952c.449,0,.815.363.815.815v1.208"/>
  <path class="st6" d="M55.013,40.417H13.224v2.651h41.789v-2.651Z"/>
  <path class="st2" d="M30.305,33.365h-3.653v1.499h3.653v-1.499Z"/>
  <path class="st2" d="M36.1,33.683h-4.401v1.279h4.401v-1.279Z"/>
  <path class="st4" d="M16.028,35.082V15.481c0-.819.662-1.481,1.481-1.481h33.582c.819,0,1.481.662,1.481,1.481v19.597"/>
  <path class="st4" d="M17.909,35.074v-18.546c0-.355.288-.643.643-.643h31.376c.355,0,.643.288.643.643v18.546"/>
  <path class="st4" d="M53.068,35.097v1.35c0,.819-.692,1.481-1.544,1.481H17.071c-.852,0-1.544-.662-1.544-1.481v-1.35h37.542Z"/>
  <path class="st4" d="M54.957,40.417H13.272v2.621h41.685v-2.621Z"/>
  <path class="st4" d="M19.827,34.962v-1.208c0-.449.363-.815.815-.815h3.952c.449,0,.815.363.815.815v1.208"/>
  <path class="st4" d="M30.312,33.302h-3.653v1.66h3.653v-1.66Z"/>
  <path class="st4" d="M36.111,33.365h-4.401v1.499h4.401v-1.499Z"/>
  <path class="st5" d="M24.737,20.839v7.65"/>
  <path class="st5" d="M32.922,20.839v7.65"/>
  <path class="st5" d="M27.381,24.997h2.445"/>
  <path class="st5" d="M36.07,24.185h2.445"/>
  <path class="st5" d="M36.07,25.599h2.445"/>
  <path class="st5" d="M28.603,23.774v2.445"/>
  <path class="st5" d="M40.763,22.017s.497-1.178,1.877-1.178c1.301,0,2.214.882,1.686,2.696-.527,1.814-3.915,4.955-3.915,4.955l5.104-.034"/>
</svg>