<?xml version="1.0" encoding="UTF-8"?>
<svg id="Layer_1" xmlns="http://www.w3.org/2000/svg" version="1.1" viewBox="0 0 68 68">
  <!-- Generator: Adobe Illustrator 30.3.0, SVG Export Plug-In . SVG Version: 2.1.3 Build 182)  -->
  <path d="M42.8,17.34c0,3.5-2.85,6.34-6.38,6.34s-6.37-2.84-6.37-6.34,2.85-6.34,6.37-6.34,6.38,2.84,6.38,6.34Z" fill="#4ba6a6"/>
  <path d="M35.15,43.96c0,2.54-1.37,5.04-5.1,5.04H7.09c-3.8,0-5.09-2.54-5.09-5.04,0-7.64,7.65-12.7,16.57-12.7s16.58,5.1,16.58,12.7Z" fill="#4ed7de"/>
  <path d="M47.9,43.96c3.69,0,5.1-2.59,5.1-5.07,0-7.63-7.75-12.68-17.11-12.68-2.59,0-5.51.72-7,1.76-1.5,1.04-1.26,2.18,0,2.8,6.46,3.16,8.83,7.87,8.83,10.69,0,1.61,1.1,2.49,2.51,2.49h7.67Z" fill="#4ba6a6"/>
  <path d="M24.95,22.41c0,3.5-2.85,6.34-6.38,6.34s-6.38-2.84-6.38-6.34,2.85-6.34,6.38-6.34,6.38,2.84,6.38,6.34Z" fill="#4ed7de"/>
  <path d="M42.8,17.34c0,3.5-2.85,6.34-6.38,6.34s-6.37-2.84-6.37-6.34,2.85-6.34,6.37-6.34,6.38,2.84,6.38,6.34Z" fill="none" stroke="#002140"/>
  <path d="M35.15,43.96c0,2.54-1.37,5.04-5.1,5.04H7.09c-3.8,0-5.09-2.54-5.09-5.04,0-7.64,7.65-12.7,16.57-12.7s16.58,5.1,16.58,12.7Z" fill="none" stroke="#002140"/>
  <path d="M47.9,43.96c3.69,0,5.1-2.59,5.1-5.07,0-7.63-7.75-12.68-17.11-12.68-2.59,0-5.51.72-7,1.76-1.5,1.04-1.26,2.18,0,2.8,6.46,3.16,8.83,7.87,8.83,10.69,0,1.61,1.1,2.49,2.51,2.49h7.67Z" fill="none" stroke="#002140"/>
  <path d="M24.95,22.41c0,3.5-2.85,6.34-6.38,6.34s-6.38-2.84-6.38-6.34,2.85-6.34,6.38-6.34,6.38,2.84,6.38,6.34Z" fill="none" stroke="#002140"/>
  <path d="M55.79,56.09v-7.04c0-.7.57-1.27,1.27-1.27h7.04c.7,0,1.27-.57,1.27-1.27v-3.44c0-.7-.57-1.27-1.27-1.27h-7.04c-.7,0-1.27-.57-1.27-1.27v-7.04c0-.7-.57-1.27-1.27-1.27h-3.44c-.7,0-1.27.57-1.27,1.27v7.04c0,.7-.57,1.27-1.27,1.27h-7.04c-.7,0-1.27.57-1.27,1.27v3.44c0,.7.57,1.27,1.27,1.27h7.04c.7,0,1.27.57,1.27,1.27v7.04c0,.7.57,1.27,1.27,1.27h3.44c.7,0,1.27-.57,1.27-1.27Z" fill="#03d47c" stroke="#002140" stroke-miterlimit="10" stroke-width="1"/>
</svg>